<?xml version="1.0" encoding="utf-8"?>
<!-- Generator: Adobe Illustrator 18.1.1, SVG Export Plug-In . SVG Version: 6.00 Build 0)  -->
<svg version="1.1" id="Layer_1" xmlns="http://www.w3.org/2000/svg" xmlns:xlink="http://www.w3.org/1999/xlink" x="0px" y="0px"
	 viewBox="0 0 193 316" enable-background="new 0 0 193 316" xml:space="preserve">
<g>
	<g>
		<path fill-rule="evenodd" clip-rule="evenodd" fill="#FFCC66" d="M84.9,267.5h6.6c-1.1,9.2-1.1,18.4,0,27.6h-4.9
			C85.1,286,84.5,276.8,84.9,267.5z"/>
	</g>
	<g>
		<path fill-rule="evenodd" clip-rule="evenodd" fill="#FFCC66" d="M104.5,266.5h6.5c0.4,9.4-0.2,18.6-1.7,27.6h-4.9
			C105.5,284.8,105.5,275.7,104.5,266.5z"/>
	</g>
	<g>
		<g>
			<path fill-rule="evenodd" clip-rule="evenodd" fill="#005B79" d="M79.5,278.8c-1.3-0.2-2.7-0.4-4-0.8c-2.1-5.6-3.2-11.9-3.4-18.9
				c-0.1-1.1-0.1-2.3,0-3.4c8.1,0.7,16.3,1.1,24.5,1.3c0.3,0,0.5,0,0.8,0c0.4,0,0.9,0,1.3,0c8-0.2,16-0.6,24-1.3c0,1.1,0,2.1,0,3.3
				c0,0.2,0,0.3,0,0.5c-0.8,0-1.6,0.1-2.3,0.2c-6.5,2-12.8,3.2-18.9,3.6c-2.6,0.2-5.1,0.2-7.6,0.1c-6.2-0.2-12.2-1.2-18.1-3.1
				c-0.3-0.1-0.6-0.2-0.9-0.3C75.1,266.6,76.7,272.8,79.5,278.8z M99.1,272.3c2.3-0.2,4.6-0.5,6.9-0.9c-2.5,2.3-5,3.5-7.3,3.8
				L99.1,272.3z M95.8,275.2c-2.2-0.2-4.6-1.4-7.2-3.7c2.2,0.4,4.5,0.7,6.7,0.8L95.8,275.2z"/>
			<path fill-rule="evenodd" clip-rule="evenodd" fill="#0099CC" d="M99.1,272.3c-0.2,0-0.4,0.1-0.5,0.1c-0.4,0-0.9,0.1-1.3,0.1
				c-0.3,0-0.5-0.1-0.8-0.1c-0.4,0-0.9-0.1-1.3-0.1c-2.2-0.2-4.4-0.5-6.7-0.8c2.6,2.3,5,3.5,7.2,3.7l0.5,2.9
				c-5.6,1.4-11.2,1.6-16.8,0.8c-2.8-6-4.3-12.3-4.7-18.8c0.3,0.1,0.5,0.2,0.9,0.3c5.9,1.9,11.9,2.9,18.1,3.1c2.5,0.1,5,0.1,7.6-0.1
				c6.1-0.5,12.4-1.7,18.9-3.6c0.7-0.1,1.5-0.2,2.3-0.2c-0.2,6.7-1.3,12.8-3.5,18.5c-7.5,2-14.4,2-20.8,0l0.4-2.8
				c2.3-0.2,4.7-1.5,7.3-3.8C103.7,271.8,101.4,272.2,99.1,272.3z"/>
		</g>
	</g>
	<g>
		<g>
			<path fill-rule="evenodd" clip-rule="evenodd" fill="#CC0000" d="M92.7,287.2c0.8,1.7,0.9,3.5,0.4,5.5c-0.2,0-0.5,0-0.7,0
				c-0.1,0-0.1,0-0.1,0c-0.3,0-0.6,0-0.9,0c-0.1,0-0.3,0-0.4,0c-2.5-0.1-5.3-0.4-8.3-1c-0.3-0.1-0.6-0.1-0.9-0.2c-0.1,0-0.2,0-0.3,0
				c-0.1,0-0.1,0-0.2,0c-0.2-0.1-0.5-0.1-0.7-0.2c0-0.1,0-0.1,0-0.3c0-0.2,0-0.5,0.1-0.7c0.1-1.1,0.5-2.1,1.1-3.1
				c0-0.1,0.1-0.1,0.1-0.2C85.7,287.4,89.2,287.4,92.7,287.2z"/>
			<path fill-rule="evenodd" clip-rule="evenodd" fill="#2F2000" d="M64.7,303.2c0,0,0.1,0,0.1,0c2.6,0.4,5.1,0.6,7.5,0.8
				c8.2,0.6,15.2,0,21-1.8c-0.1-1-0.2-2-0.4-3l-0.8-3.6c-0.2-0.7-0.3-1.4-0.5-2c0-0.1-0.1-0.1-0.1-0.2c-2.7-0.1-5.8-0.5-9.3-1.2
				c0.1-0.2,0.2-0.4,0.4-0.6c3,0.6,5.8,0.9,8.3,1c0.1,0,0.3,0,0.4,0c0.3,0,0.6,0,0.9,0v0c0.1,0.2,0.2,0.5,0.3,0.7
				c0.9,2.6,1.5,5.4,1.8,8.5c0,0.5,0.1,1,0.1,1.5c-0.3,0.1-0.6,0.1-1,0.3c-7.6,2.1-17.2,2.1-28.8,0V303.2z"/>
			<path fill-rule="evenodd" clip-rule="evenodd" fill="#996600" d="M72.4,304c-1.2-3.8-3.1-5.9-5.7-6.3c6.4-0.3,11.2-1.5,14.6-3.4
				c0.2-0.1,0.4-0.3,0.6-0.4c0.1-0.6,0.3-1.1,0.6-1.6c3.5,0.7,6.6,1.1,9.3,1.2c0,0.1,0.1,0.1,0.1,0.2c0.2,0.7,0.4,1.3,0.5,2l0.8,3.6
				c0.1,1,0.3,2,0.4,3C87.6,304.1,80.5,304.7,72.4,304z"/>
			<path fill-rule="evenodd" clip-rule="evenodd" fill="#910000" d="M93.1,292.8c0.5-2,0.4-3.9-0.4-5.5c0.5,0,0.9-0.1,1.4-0.1
				c0.8,1.7,0.9,3.6,0.4,5.6C94,292.7,93.6,292.7,93.1,292.8z"/>
			<path fill-rule="evenodd" clip-rule="evenodd" fill="#624200" d="M72.4,304c-2.4-0.2-4.9-0.4-7.5-0.8c-0.1,0-0.1,0-0.1,0
				c0.3-2.6,0.8-4.4,1.6-5.4c0,0,0.1,0,0.1,0c0,0,0.1,0,0.1,0c0,0,0.1,0,0.1,0C69.2,298.2,71.1,300.3,72.4,304z"/>
		</g>
	</g>
	<g>
		<g>
			<path fill-rule="evenodd" clip-rule="evenodd" fill="#910000" d="M102.8,287.2c-0.8,1.7-0.9,3.5-0.4,5.5c-0.5,0-0.9-0.1-1.4-0.1
				c-0.6-2-0.5-3.9,0.4-5.6C101.9,287.1,102.3,287.2,102.8,287.2z"/>
			<path fill-rule="evenodd" clip-rule="evenodd" fill="#2F2000" d="M123.2,304c2.4-0.2,4.8-0.4,7.5-0.8c0.1,0,0.1,0,0.1,0v0.5
				c-11.6,2.1-21.2,2.1-28.8,0c-0.3-0.1-0.6-0.2-0.9-0.3c0-0.5,0-1,0.1-1.5c0.3-3.1,0.9-5.9,1.8-8.5c0.1-0.2,0.2-0.5,0.3-0.7v0
				c0.3,0,0.6,0,0.9,0c0.1,0,0.2,0,0.3,0c2.5-0.1,5.3-0.4,8.3-1c0.1,0.2,0.2,0.4,0.3,0.6c-3.5,0.7-6.6,1.1-9.3,1.2l-0.1,0v0
				c0,0.1,0,0.1,0,0.2c-0.2,0.7-0.4,1.3-0.6,2l-0.8,3.6c-0.1,1-0.2,2-0.3,3C108,304.1,115,304.7,123.2,304z"/>
			<path fill-rule="evenodd" clip-rule="evenodd" fill="#CC0000" d="M102.8,287.2c3.5,0.2,7,0.2,10.8-0.1c0,0.1,0,0.1,0.1,0.2
				c0.6,1,1,2,1.1,3.1c0,0.2,0,0.5,0,0.7c0,0.1,0,0.2,0,0.3c-0.2,0-0.5,0.1-0.7,0.2c-0.1,0-0.1,0-0.2,0c-0.1,0-0.2,0-0.3,0
				c-0.3,0-0.6,0.1-0.9,0.2c-3.1,0.6-5.8,0.9-8.3,1c-0.1,0-0.3,0-0.3,0c-0.3,0-0.6,0-0.9,0c0,0-0.1,0-0.2,0c-0.2,0-0.5,0-0.7,0
				C101.9,290.7,102,288.9,102.8,287.2z"/>
			<path fill-rule="evenodd" clip-rule="evenodd" fill="#996600" d="M128.8,297.8c-2.6,0.4-4.4,2.5-5.6,6.3c-8.2,0.6-15.3,0-21-1.8
				c0.1-1,0.2-2,0.3-3l0.8-3.6c0.2-0.7,0.4-1.4,0.6-2c0-0.1,0-0.1,0-0.2v0l0.1,0c2.7-0.1,5.8-0.5,9.3-1.2c0.2,0.5,0.4,1,0.5,1.6
				c0.2,0.1,0.4,0.3,0.6,0.4C117.7,296.3,122.5,297.4,128.8,297.8z"/>
			<path fill-rule="evenodd" clip-rule="evenodd" fill="#624200" d="M123.2,304c1.2-3.8,3.1-5.9,5.6-6.3c0.1,0,0.1,0,0.2,0
				c0,0,0.1,0,0.1,0c0,0,0,0,0,0c0.8,1,1.3,2.8,1.6,5.4c0,0-0.1,0-0.1,0C128,303.6,125.6,303.9,123.2,304z"/>
		</g>
	</g>
	<g>
		<g>
			<path fill-rule="evenodd" clip-rule="evenodd" fill="#CC3300" d="M117.5,144.7c-2.7,1.9-5.2,3.4-7.6,4.6
				c-0.2-0.4-0.4-0.9-0.5-1.3c-1.3-3-2.6-6-3.9-8.9l8.5-4.6c1.2,3.3,2.4,6.6,3.5,10C117.5,144.6,117.5,144.7,117.5,144.7z
				 M125.7,171c-2.2,1.4-4.3,2.7-6.3,3.7c-0.8-2.4-1.5-4.7-2.3-7c-0.7-1.9-1.3-3.7-2-5.5c2.2-1.1,4.5-2.5,6.8-4.2
				C123.2,162.4,124.5,166.7,125.7,171z M131.5,195.6c-1.8,1.2-3.5,2.2-5.1,3.1c-0.9-3.3-1.8-6.5-2.7-9.7c-0.2-0.7-0.4-1.4-0.6-2
				c1.8-0.9,3.7-2,5.7-3.3C129.8,187.6,130.7,191.6,131.5,195.6z M129,209.4c1.5-0.8,3-1.7,4.7-2.7c0.7,3.8,1.3,7.6,1.8,11.4l-1,0.5
				l-3.3,1.6l-0.5-3.9c-0.2-0.7-0.3-1.4-0.5-2.1c0-0.2-0.1-0.5-0.1-0.7C129.6,212.2,129.3,210.8,129,209.4z"/>
			<path fill-rule="evenodd" clip-rule="evenodd" fill="#972600" d="M124.4,199.7c-1.1-4-2.3-7.9-3.6-11.7c0.7-0.3,1.5-0.7,2.3-1
				c0.2,0.7,0.4,1.3,0.6,2c0.9,3.2,1.8,6.4,2.7,9.7C125.7,199,125,199.3,124.4,199.7z M127.2,210.3c0.6-0.3,1.2-0.5,1.8-0.8
				c0.3,1.4,0.6,2.8,1,4.1c0,0.2,0.1,0.4,0.1,0.7c0.2,0.7,0.3,1.4,0.5,2.1l0.5,3.9l-1.4,0.7C128.9,217.3,128.1,213.8,127.2,210.3z
				 M106.2,151c-1.5-3.2-3.1-6.4-4.8-9.6l4-2.1c1.3,2.9,2.6,5.9,3.9,8.9c0.2,0.4,0.3,0.8,0.5,1.3C108.7,150,107.4,150.5,106.2,151z
				 M111.8,163.5c1-0.4,2.1-0.9,3.2-1.4c0.7,1.8,1.3,3.7,2,5.5c0.8,2.3,1.6,4.6,2.3,7c-0.6,0.3-1.1,0.5-1.6,0.8
				c-0.4,0.1-0.7,0.3-1,0.5c-0.9-2.4-1.8-4.9-2.8-7.3C113.2,167,112.5,165.3,111.8,163.5z"/>
			<path fill-rule="evenodd" clip-rule="evenodd" fill="#FF9900" d="M110,149.4c2.4-1.2,4.9-2.8,7.6-4.6c1.5,4.4,2.9,8.9,4.3,13.3
				c-2.4,1.6-4.7,3-6.8,4.2c0,0,0-0.1,0-0.1C113.3,157.8,111.7,153.5,110,149.4z M128.8,183.6c-2,1.3-3.9,2.4-5.7,3.3
				c-0.8-2.7-1.6-5.4-2.5-8.1c-0.3-1.1-0.7-2.1-1-3.2c-0.1-0.3-0.3-0.7-0.4-1c2-1,4.1-2.2,6.3-3.7
				C126.8,175.3,127.8,179.4,128.8,183.6z M133.7,206.8c-1.6,1-3.2,1.9-4.7,2.7c-0.6-2.5-1.2-5-1.8-7.5c-0.3-1.1-0.5-2.2-0.8-3.3
				c1.6-0.9,3.3-1.9,5.1-3.1C132.3,199.3,133,203,133.7,206.8z"/>
			<path fill-rule="evenodd" clip-rule="evenodd" fill="#CC7A00" d="M127.2,210.3c-0.9-3.6-1.8-7.1-2.8-10.6c0.6-0.3,1.3-0.6,2-1
				c0.3,1.1,0.5,2.1,0.8,3.3c0.6,2.5,1.2,5,1.8,7.5C128.4,209.7,127.8,210,127.2,210.3z M123.2,186.9c-0.8,0.4-1.6,0.7-2.3,1
				c-1-3.1-2.1-6.2-3.1-9.2c-0.3-1-0.7-2-1-2.9c0.3-0.2,0.7-0.3,1-0.5c0.5-0.2,1.1-0.5,1.6-0.8c0.1,0.3,0.2,0.6,0.4,1
				c0.3,1.1,0.7,2.1,1,3.2C121.5,181.5,122.3,184.2,123.2,186.9z M111.8,163.5c-1.8-4.3-3.7-8.5-5.6-12.6c1.2-0.5,2.5-1,3.8-1.6
				c1.7,4.2,3.4,8.4,5,12.7c0,0,0,0.1,0,0.1C113.9,162.7,112.8,163.2,111.8,163.5z"/>
			<path fill-rule="evenodd" clip-rule="evenodd" fill="#CC9900" d="M135.8,257.2c-0.5-0.1-0.9-0.3-1.3-0.5l-2-3.2l0.6-0.5
				C134.5,255.2,135.4,256.6,135.8,257.2z M135.3,221.8c-1.1,0.7-2.2,1.3-3.2,1.9c-0.1,0.1-0.3,0.1-0.4,0.2l-0.6-3.7l3.3-1.6
				L135.3,221.8z"/>
			<path fill-rule="evenodd" clip-rule="evenodd" fill="#FFCC66" d="M135.3,221.8l4.3,16.2c6.8,3.8,10.8,8.4,12.1,13.9
				c0.9,2.3-0.1,3.3-2.9,3.3c-0.4,2.7-2,3.5-4.8,2.5c-2.7,3.5-5.4,3.4-8.2-0.5c-0.4-0.6-1.3-2-2.7-4.2l-0.6,0.5l2,3.2
				c-1.1-0.5-2-1.1-2.7-1.7c-0.2-0.1-0.3-0.3-0.4-0.4c-1.4-1.5-2-3.4-1.8-5.8c0.2-2.8,1.6-6.2,4.1-10.2l-2.1-14.7
				c0.1-0.1,0.3-0.1,0.4-0.2C133.1,223.2,134.2,222.5,135.3,221.8z"/>
		</g>
	</g>
	<g>
		<g>
			<path fill-rule="evenodd" clip-rule="evenodd" fill="#FF9900" d="M118.2,220.8c0.5,3.9,1.1,7.9,1.7,12
				c-14.2,4.3-27.6,4.9-40.3,1.7c0.5-3.6,0.9-7.2,1.3-10.7c0.1-0.5,0.1-1,0.1-1.5C92.7,225,105.1,224.5,118.2,220.8z M90.8,148.9
				c5.1,0.4,10.4,0.2,15.8-0.5c1.4,3.9,2.6,7.9,3.7,11.9c-7.8,1.4-15.5,1.7-22.9,0.8c0.2-0.8,0.4-1.6,0.6-2.4
				C88.7,155.4,89.7,152.1,90.8,148.9z M114.8,184.3c-11,2.7-21.5,3-31.6,1.1c0-0.3,0.1-0.5,0.1-0.8c0.4-3.8,0.9-7.6,1.5-11.4
				c9,1.5,18.4,1.2,28.2-1C113.7,176.2,114.3,180.2,114.8,184.3z M116.8,208.8c-12.2,3.2-23.8,3.7-34.8,1.3
				c0.3-4.2,0.5-8.4,0.6-12.4c10.6,2.2,21.7,1.8,33.4-1.2C116.1,200.5,116.4,204.5,116.8,208.8z M75.6,258.4
				c0.6-3.1,1.1-6.1,1.6-9.1c0.2-1,0.3-1.9,0.5-2.8c13.9,3.9,28.6,3.3,44.1-1.8c0.7,3.8,1.5,7.7,2.3,11.7
				C106.9,262.5,90.8,263.2,75.6,258.4z"/>
			<path fill-rule="evenodd" clip-rule="evenodd" fill="#CC3300" d="M113,172.2c-9.7,2.1-19.1,2.5-28.2,1c0.1-0.5,0.2-1.1,0.3-1.6
				c0.6-3.5,1.3-7,2.2-10.5c7.4,0.9,15,0.7,22.9-0.8C111.2,164.2,112.2,168.2,113,172.2z M83.2,185.3c10.1,1.9,20.6,1.6,31.6-1.1
				c0.5,3.7,0.8,7.5,1,11.3c0,0.3,0,0.7,0.1,1c-11.6,3-22.8,3.4-33.4,1.2h0l0,0c0-0.5,0-0.9,0-1.3C82.6,192.7,82.9,189,83.2,185.3z
				 M90.8,148.9c0.3-1.1,0.7-2.1,1-3.1c0.6-1.8,1.3-3.7,2-5.5h9.7c1.1,2.7,2.1,5.4,3,8.1C101.1,149.1,95.9,149.3,90.8,148.9z
				 M118.2,220.8c-13,3.7-25.5,4.2-37.3,1.5c0.4-3.9,0.7-7.8,1-11.5c0-0.3,0-0.5,0.1-0.7c11.1,2.3,22.7,1.9,34.8-1.3
				C117.2,212.7,117.6,216.8,118.2,220.8z M79.5,234.5c12.7,3.2,26.2,2.7,40.3-1.7c0.6,3.9,1.3,7.9,2,11.9
				c-15.6,5.1-30.3,5.7-44.1,1.8c0.5-3.4,1-6.7,1.5-9.9C79.3,235.9,79.4,235.2,79.5,234.5z"/>
			<path fill-rule="evenodd" clip-rule="evenodd" fill="#972600" d="M87.3,161c-0.9,3.5-1.6,7-2.2,10.5c-0.1,0.5-0.2,1.1-0.3,1.6
				c-1.1-0.2-2.3-0.4-3.4-0.7c0.8-4,1.7-8,2.8-12C85.2,160.7,86.2,160.9,87.3,161z M79.5,184.5c1.2,0.3,2.5,0.6,3.7,0.8
				c-0.3,3.6-0.6,7.3-0.7,11c0,0.4,0,0.8,0,1.3l0,0c-1.4-0.3-2.7-0.6-4-1c0-0.4,0.1-0.8,0.1-1.3C78.7,191.8,79,188.2,79.5,184.5z
				 M74.5,233c1.6,0.5,3.3,1,5,1.5c-0.1,0.7-0.2,1.4-0.3,2.2c-0.5,3.2-1,6.5-1.5,9.9c-1.7-0.5-3.5-1.1-5.2-1.7
				C73.2,240.8,73.9,236.9,74.5,233z M80.9,222.3c-1.6-0.4-3.1-0.8-4.7-1.3c0.5-4.1,0.9-8.2,1.3-12.1c1.4,0.4,2.9,0.8,4.4,1.1
				c0,0.2-0.1,0.4-0.1,0.7C81.6,214.6,81.3,218.4,80.9,222.3z M93.8,140.2c-0.7,1.8-1.4,3.7-2,5.5c-0.4,1-0.7,2.1-1,3.1
				c-1-0.1-2-0.2-3-0.3c0.9-2.8,2-5.6,3.1-8.3H93.8z"/>
			<path fill-rule="evenodd" clip-rule="evenodd" fill="#CC7A00" d="M77.7,246.5c-0.1,0.9-0.3,1.8-0.5,2.8c-0.5,3-1,6-1.6,9.1
				c-1.8-0.6-3.6-1.2-5.4-2c0.8-3.9,1.5-7.8,2.3-11.6C74.2,245.5,76,246,77.7,246.5z M79.5,234.5c-1.7-0.4-3.4-0.9-5-1.5
				c0.6-4.1,1.2-8,1.7-12c1.6,0.5,3.1,0.9,4.7,1.3c0,0.5-0.1,1-0.1,1.5C80.4,227.3,80,230.9,79.5,234.5z M82.5,197.7
				c-0.1,4-0.3,8.2-0.6,12.4c-1.5-0.3-3-0.7-4.4-1.1c0.4-4.2,0.7-8.3,0.9-12.3C79.8,197.1,81.1,197.4,82.5,197.7L82.5,197.7z
				 M79.5,184.5c0.5-4,1.1-8,1.9-12c1.1,0.3,2.3,0.5,3.4,0.7c-0.6,3.8-1.1,7.6-1.5,11.4c0,0.3-0.1,0.5-0.1,0.8
				C82,185.1,80.7,184.8,79.5,184.5z M87.3,161c-1.1-0.1-2.1-0.3-3.1-0.5c1.1-4,2.3-8,3.6-12c1,0.1,2,0.2,3,0.3
				c-1.1,3.3-2,6.5-2.9,9.8C87.7,159.4,87.5,160.2,87.3,161z"/>
		</g>
	</g>
	<g>
		<g>
			<path fill-rule="evenodd" clip-rule="evenodd" fill="#CC3300" d="M88,138.4c-1.3,2.9-2.6,5.9-3.9,8.9c-0.2,0.4-0.3,0.8-0.5,1.3
				c-2.4-1.2-4.9-2.8-7.6-4.7c0,0,0.1-0.1,0.1-0.1c1.1-3.3,2.3-6.6,3.5-10L88,138.4z M59.8,205.8c1.6,1,3.2,1.9,4.7,2.7
				c-0.3,1.4-0.6,2.8-1,4.2c0,0.2-0.1,0.4-0.1,0.6c-0.2,0.7-0.3,1.4-0.5,2.2l-0.5,3.9l-3.3-1.6l-1-0.5
				C58.5,213.5,59.1,209.7,59.8,205.8z M67,197.8c-1.6-0.9-3.3-1.9-5.1-3c0.8-4,1.7-8,2.6-12c2,1.3,3.9,2.4,5.7,3.3
				c-0.2,0.7-0.4,1.3-0.6,2C68.8,191.3,67.9,194.5,67,197.8z M74.1,173.8c-2-1-4.1-2.2-6.3-3.6c1.2-4.3,2.5-8.7,3.8-13.1
				c2.4,1.6,4.7,3,6.9,4.1c-0.7,1.8-1.3,3.7-2,5.5C75.6,169.1,74.9,171.4,74.1,173.8z"/>
			<path fill-rule="evenodd" clip-rule="evenodd" fill="#972600" d="M81.6,162.7c-0.7,1.7-1.4,3.4-2.1,5.1c-0.9,2.4-1.8,4.8-2.8,7.3
				c-0.3-0.2-0.7-0.3-1-0.5c-0.5-0.2-1.1-0.5-1.6-0.8c0.8-2.4,1.5-4.7,2.4-7c0.7-1.9,1.3-3.7,2-5.5
				C79.5,161.8,80.6,162.3,81.6,162.7z M87.3,150c-1.2-0.5-2.5-1-3.8-1.6c0.2-0.4,0.4-0.9,0.5-1.3c1.3-3,2.6-6,3.9-8.9l4,2.1
				C90.4,143.6,88.8,146.8,87.3,150z M66.3,209.3c-0.9,3.5-1.7,7.1-2.5,10.7l-1.4-0.7l0.5-3.9c0.2-0.7,0.3-1.5,0.5-2.2
				c0-0.2,0.1-0.5,0.1-0.6c0.3-1.4,0.6-2.8,1-4.2C65,208.8,65.6,209.1,66.3,209.3z M69,198.8c-0.6-0.3-1.3-0.6-2-1
				c0.9-3.3,1.8-6.5,2.7-9.7c0.2-0.7,0.4-1.4,0.6-2c0.8,0.4,1.6,0.7,2.3,1C71.4,190.9,70.2,194.8,69,198.8z"/>
			<path fill-rule="evenodd" clip-rule="evenodd" fill="#CC7A00" d="M87.3,150c-2,4.1-3.9,8.3-5.6,12.6c-1-0.4-2.1-0.9-3.1-1.4
				c0,0,0-0.1,0-0.1c1.6-4.3,3.3-8.5,5-12.7C84.8,149,86,149.6,87.3,150z M74.1,173.8c0.6,0.3,1.1,0.5,1.6,0.8
				c0.4,0.1,0.7,0.3,1,0.5c-0.4,0.9-0.7,1.9-1,2.9c-1.1,3-2.1,6-3.1,9.1c-0.7-0.3-1.5-0.7-2.3-1c0.8-2.7,1.6-5.4,2.5-8
				c0.3-1.1,0.7-2.1,1-3.2C73.9,174.4,74,174.1,74.1,173.8z M69,198.8c-1,3.5-1.9,7-2.8,10.6c-0.6-0.3-1.2-0.5-1.8-0.8
				c0.6-2.5,1.2-5,1.8-7.5c0.3-1.1,0.5-2.2,0.8-3.3C67.8,198.1,68.4,198.5,69,198.8z"/>
			<path fill-rule="evenodd" clip-rule="evenodd" fill="#FF9900" d="M78.5,161.3c-2.2-1.1-4.5-2.5-6.9-4.1c1.4-4.4,2.8-8.9,4.3-13.3
				c2.7,1.9,5.2,3.5,7.6,4.7c-1.7,4.2-3.4,8.4-5,12.7C78.5,161.2,78.5,161.2,78.5,161.3z M62,194.7c1.8,1.2,3.5,2.2,5.1,3
				c-0.3,1.1-0.5,2.2-0.8,3.3c-0.6,2.5-1.2,5-1.8,7.5c-1.5-0.8-3.1-1.7-4.7-2.7C60.5,202.2,61.2,198.4,62,194.7z M67.8,170.2
				c2.2,1.4,4.3,2.6,6.3,3.6c-0.1,0.3-0.2,0.6-0.4,1c-0.3,1.1-0.7,2.1-1,3.2c-0.8,2.6-1.6,5.3-2.5,8c-1.8-0.9-3.7-2-5.7-3.3
				C65.6,178.5,66.7,174.3,67.8,170.2z"/>
			<path fill-rule="evenodd" clip-rule="evenodd" fill="#CC9900" d="M61.8,223c-0.1-0.1-0.3-0.1-0.4-0.2c-1-0.6-2.1-1.2-3.2-1.9
				l0.8-3.2l3.3,1.6L61.8,223z M57.6,256.3c0.4-0.6,1.3-2,2.7-4.2l0.6,0.6l-2,3.2C58.5,256,58.1,256.2,57.6,256.3z"/>
			<path fill-rule="evenodd" clip-rule="evenodd" fill="#FFCC66" d="M58.9,255.8l2-3.2l-0.6-0.6c-1.4,2.2-2.3,3.6-2.7,4.2
				c-2.8,3.8-5.5,4-8.2,0.5c-2.8,1-4.4,0.2-4.8-2.5c-2.8,0.1-3.7-1-2.9-3.3c1.3-5.5,5.3-10.1,12.1-13.9l4.3-16.1
				c1.1,0.7,2.2,1.3,3.2,1.9c0.1,0.1,0.3,0.1,0.4,0.2l-2.1,14.7c2.5,4,3.9,7.4,4.1,10.2c0.2,2.4-0.4,4.3-1.8,5.8
				c-0.1,0.1-0.2,0.3-0.4,0.4C60.9,254.8,60,255.3,58.9,255.8z"/>
		</g>
	</g>
</g>
<g>
	<g>
		<path fill-rule="evenodd" clip-rule="evenodd" fill="#FFCC66" d="M67.5,144.3c-9.6-1.9-14.8-3-15.4-3.2
			c-3.9-1.3-7.8-4.7-11.6-10.1c-2.9-4.2-5.1-8.2-6.4-12c-1.5-4.2-1.9-12.7-1.3-25.5c0.4-9.1,1.2-18.3,2.3-27.4
			c0.7-6.1,1.6-9.6,2.4-10.7c0.5-0.6,1.4-1.5,2.6-2.5c0,1,0.1,2,0.4,3.1c2-0.6,4-1.2,5.8-1.9c10.5-3.6,17.5-7.5,21-11.5
			c-2.1,2.7-3.6,5-4.5,6.9c-0.7,1.4-1,2.6-1,3.6c2-0.3,3.9-0.6,5.8-1c7.4-1.7,13.8-4.5,19.4-8.6c-2.5,2.2-4.3,4.2-5.5,6
			c-1.1,1.6-1.6,3.1-1.5,4.4c1.3,0.1,2.7,0.1,4,0.1c13.7,0,26.4-4.7,38.2-14c-2.7,2.9-4.6,5.5-5.6,7.8c-1.3,2.9-1.2,5.3,0.2,7.3
			c1.6-0.2,3.2-0.5,4.8-1c6.1-1.9,11.5-6,16.2-12.4c-2.4,3.8-3.7,7.2-4,10.2c-0.3,2.9,0.3,5.3,1.9,7.5c1.8-0.3,3.5-0.8,5.1-1.3
			c2.4-0.8,4.7-1.9,6.8-3.1c0.4-0.2,0.8-0.5,1.2-0.8c4.1-2.7,7.5-6.4,10.2-11c-0.4,4.9-0.4,9.6-0.2,14.1c0.3,6,1.2,11.6,2.7,16.9
			c1.1-1.8,2.5-3.4,4.2-4.8c0.3-0.2,0.5-0.4,0.8-0.6c0.8-0.6,1.7-1.1,2.6-1.6c3.7-1.9,7.3-2.5,10.7-1.6c3.5,0.9,5.8,2.9,6.9,6
			c1.1,3.2,0.7,6.6-1.1,10.2c-1.7,3.3-4.2,5.9-7.5,7.9c-0.3,0.2-0.6,0.3-0.9,0.4c-3.7,1.9-7.3,2.5-10.8,1.6c-1.7-0.4-3-1.1-4.2-2
			c1.9,25-3.5,39.1-16.3,42.2c-26.4,6.5-48.3,10.4-65.9,11.8C75.5,144.1,71.4,144.2,67.5,144.3z M112.5,75.3
			c0.2,1.4,0.6,2.7,1.3,3.9c1,1.7,2.4,3.1,4.3,4.3c3.3,2,7,2.8,11.1,2.2c4.1-0.6,7.5-2.3,10-5.2c2.6-2.8,3.7-5.9,3.2-9.4
			c-0.5-3.4-2.4-6.2-5.6-8.2c-3.3-2-6.9-2.7-11.1-2.2c-4.1,0.6-7.5,2.3-10.1,5.2C113,68.7,112,71.8,112.5,75.3z M122.7,92.6l1.3,0.2
			L122.7,92.6z M161.8,83.9c2.3-3.3,5.4-5.5,9.3-6.5c2-0.5,4.1-0.7,6.5-0.6c-2.4-0.1-4.5,0.1-6.5,0.6
			C167.2,78.4,164.1,80.6,161.8,83.9z M142.5,64.8c3.3,4.4,3.7,9.8,1.3,16.2C146.1,74.6,145.7,69.2,142.5,64.8z M109.7,107.9
			l1.3,0.7L109.7,107.9z M105.3,97.1l1.4-0.4L105.3,97.1z M46.6,60.8c-3.2,2.1-5.1,4.9-5.5,8.3c-0.2,1.4-0.1,2.8,0.2,4
			c0.5,1.9,1.5,3.6,3.1,5.3c2.6,2.8,6,4.5,10.1,5c4.1,0.5,7.8-0.3,11.1-2.4c3.2-2.1,5.1-4.8,5.5-8.3c0.4-3.4-0.7-6.6-3.3-9.4
			c-2.6-2.8-6-4.4-10.1-4.9C53.6,57.9,49.9,58.7,46.6,60.8z M42,62.6c-3.3,4.7-4,9.1-2.1,13.2C38,71.7,38.6,67.3,42,62.6z
			 M67.8,89.7L67.1,91L67.8,89.7z M88.4,88.4c-0.7,4.1-0.2,6.3,1.5,6.7c2.6,0.6,4.8-0.9,6.5-4.6c-1.7,3.7-3.9,5.2-6.5,4.6
			C88.2,94.7,87.7,92.5,88.4,88.4z M68.1,101.4l-0.7,1.3L68.1,101.4z M54.6,100.5l0.6,1.5L54.6,100.5z"/>
		<path fill-rule="evenodd" clip-rule="evenodd" d="M40.1,52.9c0.1-0.6,0.2-1.2,0.3-1.8c0.8-2.9,3-5.6,6.6-8.1
			c-3.8,2.4-8.2,4.3-13.2,5.6c-0.9,4.1-1.8,8-2.6,11.8c-0.7,3.4-1.3,6.8-1.9,10c0,0.1-0.2,0.5-0.7,1.3c0-0.2,0-0.4,0-0.6
			c0.1-3,0.2-6.8,0.3-11.5l0.5-10c-4.9,0.9-10.3,1.3-16.2,1.2c1.8-2.9,4.7-5.7,8.6-8.4c-4.3,1.9-9,2.4-14.1,1.4
			c3.2-4.2,7.1-7,11.7-8.5c4.6-1.5,8.4-2.6,11.2-3.2c1.5-0.3,5.9-0.9,13.3-1.8c6.3-0.8,14.9-1.7,25.5-2.9c23-2.6,43.8-2.6,62.4,0
			c18.5,2.6,30.9,4.5,37,5.8c0-4.8,2.1-10.2,6.4-16.4c1.3,7.2,1,13.5-0.9,18.6c1.4-2,4.6-3.2,9.5-3.5c-2.7,5-6.1,7.8-10.4,8.4
			c-2.1,12.5-4.6,21.9-7.5,28.2c-0.2,0.4-0.4,0.8-0.5,1.1c-1.7,1.3-3.1,2.9-4.2,4.8c-1.4-5.3-2.3-10.9-2.7-16.9
			c-0.3-4.5-0.2-9.2,0.2-14.1c-2.7,4.6-6.1,8.2-10.2,11c-0.4,0.3-0.8,0.5-1.2,0.8c-2.1,1.3-4.3,2.3-6.8,3.1c-1.6,0.5-3.3,1-5.1,1.3
			c-1.5-2.1-2.2-4.6-1.9-7.5c0.3-3,1.7-6.4,4-10.2c-4.7,6.4-10.1,10.5-16.2,12.4c-1.6,0.5-3.2,0.8-4.8,1c-1.4-1.9-1.5-4.4-0.2-7.3
			c1-2.3,2.9-4.9,5.6-7.8c-11.8,9.3-24.6,14-38.2,14c-1.3,0-2.7,0-4-0.1c0-1.3,0.5-2.8,1.5-4.4c1.2-1.8,3-3.8,5.5-6
			c-5.5,4-12,6.9-19.4,8.6c-1.9,0.4-3.8,0.8-5.8,1c0-1,0.4-2.2,1-3.6c0.9-1.9,2.4-4.3,4.5-6.9c-3.5,4.1-10.6,7.9-21,11.5
			c-1.8,0.6-3.8,1.3-5.8,1.9C40.2,54.9,40.1,53.9,40.1,52.9z M126.8,68.4c1,0.1,1.8,0.6,2.5,1.4c0.6,0.8,0.9,1.7,0.8,2.8
			c-0.1,1-0.6,1.8-1.4,2.5c-0.8,0.6-1.7,0.9-2.8,0.8c-1-0.1-1.8-0.6-2.5-1.4c-0.6-0.8-0.9-1.7-0.8-2.8c0.1-1,0.6-1.8,1.4-2.5
			C124.9,68.5,125.8,68.3,126.8,68.4z M55.2,66.6c0.8-0.6,1.7-0.9,2.8-0.8c1,0.1,1.8,0.6,2.5,1.4c0.6,0.8,0.9,1.7,0.8,2.8
			c-0.1,1-0.6,1.8-1.4,2.5C59,73.1,58,73.3,57,73.2c-1-0.1-1.8-0.6-2.5-1.4c-0.6-0.8-0.9-1.7-0.8-2.8C53.9,68,54.4,67.2,55.2,66.6z"
			/>
		<path fill-rule="evenodd" clip-rule="evenodd" fill="#FFFFFF" d="M117.2,65.4c2.2-2.4,5-3.8,8.5-4.3c3.5-0.5,6.6,0.1,9.3,1.8
			c2.7,1.7,4.3,4,4.7,6.9c0.4,2.9-0.5,5.5-2.7,7.9c-2.2,2.4-5,3.9-8.5,4.3c-3.5,0.5-6.6-0.1-9.3-1.8c-2.7-1.7-4.3-4-4.7-6.9
			C114.1,70.5,115,67.8,117.2,65.4z M127.1,66.6c-1.5-0.2-2.9,0.2-4.1,1.1c-1.2,1-1.9,2.2-2,3.7c-0.2,1.5,0.2,2.9,1.1,4
			c0.9,1.2,2.2,1.9,3.7,2.1c1.5,0.2,2.9-0.2,4.1-1.1c1.2-0.9,1.9-2.1,2.1-3.7c0.2-1.5-0.2-2.9-1.1-4.1
			C129.9,67.5,128.6,66.8,127.1,66.6z M48.2,60.5c2.7-1.7,5.8-2.4,9.3-1.9c3.5,0.4,6.3,1.8,8.5,4.1c2.2,2.4,3.1,5,2.8,7.9
			c-0.4,2.9-1.9,5.2-4.6,6.9c-2.7,1.8-5.8,2.4-9.3,2c-3.5-0.4-6.3-1.8-8.5-4.2c-2.2-2.3-3.1-5-2.8-7.9C44,64.6,45.5,62.3,48.2,60.5z
			 M54.1,65.1c-1.2,1-1.9,2.2-2.1,3.7c-0.2,1.5,0.2,2.9,1.1,4c0.9,1.2,2.2,1.9,3.7,2.1c1.5,0.2,2.9-0.2,4.1-1.2
			c1.2-0.9,1.9-2.1,2.1-3.6c0.2-1.5-0.2-2.9-1.1-4.1c-0.9-1.2-2.1-1.9-3.6-2.1C56.7,63.8,55.3,64.2,54.1,65.1z"/>
		<path fill-rule="evenodd" clip-rule="evenodd" fill="#FFBB2D" d="M117.2,65.4c-2.2,2.4-3.1,5.1-2.7,8c0.4,2.9,2,5.2,4.7,6.9
			c2.8,1.7,5.9,2.3,9.3,1.8c3.5-0.5,6.3-1.9,8.5-4.3c2.2-2.4,3.1-5,2.7-7.9c-0.4-2.9-2-5.2-4.7-6.9c-2.7-1.7-5.9-2.3-9.3-1.8
			C122.2,61.6,119.3,63,117.2,65.4z M112.5,75.3c-0.5-3.4,0.6-6.6,3.1-9.4c2.6-2.8,5.9-4.6,10.1-5.2c4.1-0.6,7.8,0.2,11.1,2.2
			c3.3,2,5.1,4.8,5.6,8.2c0.5,3.4-0.6,6.6-3.2,9.4c-2.6,2.9-5.9,4.6-10,5.2c-4.1,0.6-7.8-0.2-11.1-2.2c-1.9-1.2-3.4-2.6-4.3-4.3
			C113.1,78,112.6,76.7,112.5,75.3z M48.2,60.5c-2.7,1.8-4.3,4.1-4.6,7c-0.4,2.9,0.6,5.5,2.8,7.9c2.2,2.4,5.1,3.8,8.5,4.2
			c3.5,0.4,6.6-0.2,9.3-2c2.7-1.7,4.2-4,4.6-6.9c0.4-2.9-0.6-5.5-2.8-7.9c-2.2-2.3-5.1-3.7-8.5-4.1C54,58.2,50.9,58.8,48.2,60.5z
			 M46.6,60.8c3.2-2.1,6.9-2.8,11.1-2.3c4.1,0.5,7.5,2.2,10.1,4.9c2.6,2.8,3.7,6,3.3,9.4c-0.4,3.4-2.2,6.2-5.5,8.3
			c-3.2,2.1-6.9,2.9-11.1,2.4c-4.1-0.5-7.5-2.2-10.1-5c-1.6-1.6-2.6-3.4-3.1-5.3c-0.3-1.3-0.4-2.6-0.2-4
			C41.6,65.6,43.4,62.9,46.6,60.8z"/>
		<path fill-rule="evenodd" clip-rule="evenodd" fill="#996600" d="M127.1,66.6c1.5,0.2,2.7,0.9,3.7,2c1,1.2,1.3,2.6,1.1,4.1
			c-0.2,1.5-0.9,2.7-2.1,3.7c-1.2,1-2.5,1.3-4.1,1.1c-1.5-0.2-2.8-0.9-3.7-2.1c-0.9-1.2-1.3-2.5-1.1-4c0.2-1.5,0.9-2.8,2-3.7
			C124.2,66.8,125.6,66.4,127.1,66.6z M126.8,68.4c-1-0.1-1.9,0.1-2.8,0.8c-0.8,0.6-1.3,1.5-1.4,2.5c-0.1,1,0.1,1.9,0.8,2.8
			c0.6,0.8,1.5,1.3,2.5,1.4c1,0.1,1.9-0.1,2.8-0.8c0.8-0.6,1.3-1.5,1.4-2.5c0.1-1-0.1-1.9-0.8-2.8C128.7,69,127.9,68.5,126.8,68.4z
			 M54.1,65.1c1.2-0.9,2.6-1.3,4.1-1.1c1.5,0.2,2.7,0.9,3.6,2.1c1,1.2,1.3,2.6,1.1,4.1c-0.2,1.5-0.9,2.7-2.1,3.6
			c-1.2,1-2.5,1.4-4.1,1.2c-1.5-0.2-2.8-0.9-3.7-2.1c-0.9-1.2-1.3-2.5-1.1-4C52.2,67.3,52.9,66.1,54.1,65.1z M55.2,66.6
			c-0.8,0.6-1.3,1.5-1.4,2.5c-0.1,1,0.1,1.9,0.8,2.8c0.6,0.8,1.5,1.3,2.5,1.4c1,0.1,1.9-0.1,2.8-0.8c0.8-0.6,1.3-1.5,1.4-2.5
			c0.1-1-0.1-1.9-0.8-2.8c-0.6-0.8-1.5-1.3-2.5-1.4C56.9,65.7,56,65.9,55.2,66.6z"/>
		<path fill-rule="evenodd" clip-rule="evenodd" fill="#FFBB2F" d="M67.5,144.3c-23.2,0.1-36.2-5.7-39.1-17.4
			c-0.9-3.6-1.5-7.5-1.9-11.8c-0.7-8.3-0.5-18,0.7-28.9c0.2-1.7,0.4-3.5,0.7-5.3c-0.5,0-1,0-1.6-0.1c-1.2-0.1-2.5-0.4-3.8-1
			c-1.2-0.5-2.3-1.1-3.3-1.9c-1.5-1.2-2.7-2.6-3.6-4.4c-1.4-2.8-1.6-5.5-0.5-8.3c1.1-2.7,3.1-4.6,6.1-5.6c2.5-0.9,5.1-0.9,7.7-0.1
			C29,64.2,28.9,68,28.8,71c0,0.2,0,0.4,0,0.6c0.4-0.7,0.7-1.2,0.7-1.3c0.6-3.2,1.2-6.6,1.9-10c0.8-3.8,1.6-7.7,2.6-11.8
			c5-1.3,9.4-3.2,13.2-5.6c-3.7,2.5-5.9,5.3-6.6,8.1c-0.2,0.6-0.3,1.2-0.3,1.8c-1.3,1-2.1,1.8-2.6,2.5c-0.9,1.1-1.7,4.7-2.4,10.7
			c-1.1,9.1-1.9,18.2-2.3,27.4c-0.6,12.8-0.1,21.3,1.3,25.5c1.3,3.8,3.4,7.8,6.4,12c3.8,5.4,7.7,8.8,11.6,10.1
			C52.7,141.3,57.9,142.3,67.5,144.3z M28.8,71c-0.3-0.3-0.6-0.6-0.9-0.8c-1.6-1.5-3.5-2.3-5.6-2.4c2.1,0.1,4,0.9,5.6,2.4
			C28.2,70.4,28.5,70.7,28.8,71z"/>
		
			<path fill-rule="evenodd" clip-rule="evenodd" fill="none" stroke="#CC9900" stroke-width="2.25" stroke-linecap="round" stroke-linejoin="round" stroke-miterlimit="3" d="
			M122.7,92.6l1.3,0.2 M109.7,107.9l1.3,0.7 M105.3,97.1l1.4-0.4 M67.8,89.7L67.1,91 M68.1,101.4l-0.7,1.3 M54.6,100.5l0.6,1.5"/>
		
			<path fill-rule="evenodd" clip-rule="evenodd" fill="none" stroke="#CC9900" stroke-linecap="round" stroke-linejoin="round" stroke-miterlimit="3" d="
			M161.8,83.9c2.3-3.3,5.4-5.5,9.3-6.5c2-0.5,4.1-0.7,6.5-0.6 M142.5,64.8c3.3,4.4,3.7,9.8,1.3,16.2 M28.8,71
			c-0.3-0.3-0.6-0.6-0.9-0.8c-1.6-1.5-3.5-2.3-5.6-2.4 M42,62.6c-3.3,4.7-4,9.1-2.1,13.2"/>
		
			<path fill-rule="evenodd" clip-rule="evenodd" fill="none" stroke="#977200" stroke-linecap="round" stroke-linejoin="round" stroke-miterlimit="3" d="
			M88.4,88.4c-0.7,4.1-0.2,6.3,1.5,6.7c2.6,0.6,4.8-0.9,6.5-4.6"/>
	</g>
	<g>
		<path fill-rule="evenodd" clip-rule="evenodd" fill="#FFFFFF" d="M127.8,72c-0.5-0.1-0.8-0.3-1.1-0.7c-0.2-0.3-0.3-0.8-0.3-1.3
			c0.1-0.5,0.3-0.8,0.6-1.1c0.4-0.3,0.8-0.4,1.3-0.3c0.5,0.1,0.8,0.3,1.2,0.6c0.3,0.4,0.4,0.8,0.3,1.3c0,0.5-0.3,0.9-0.7,1.1
			C128.7,71.9,128.3,72,127.8,72z"/>
	</g>
	<g>
		<path fill-rule="evenodd" clip-rule="evenodd" fill="#FFFFFF" d="M58.7,69.4c-0.5-0.1-0.9-0.3-1.2-0.6c-0.2-0.3-0.3-0.8-0.3-1.3
			c0.1-0.5,0.3-0.9,0.6-1.1c0.4-0.3,0.8-0.4,1.3-0.3c0.5,0.1,0.9,0.3,1.1,0.6c0.3,0.4,0.4,0.8,0.4,1.3c0,0.5-0.3,0.9-0.6,1.1
			C59.6,69.4,59.2,69.5,58.7,69.4z"/>
	</g>
	<g>
		<path fill-rule="evenodd" clip-rule="evenodd" d="M68.9,54.4l-1.8,5.3c-9.7,0.7-19.9,2.1-30.7,4C47.5,59,58.3,56,68.9,54.4z"/>
	</g>
	<g>
		<path fill-rule="evenodd" clip-rule="evenodd" d="M115,56.6c10.6,1.8,21.4,5,32.3,9.6c-10.7-2-20.9-3.5-30.6-4.4L115,56.6z"/>
	</g>
</g>
<g>
	
		<path fill-rule="evenodd" clip-rule="evenodd" fill="none" stroke="#977200" stroke-linecap="round" stroke-linejoin="round" stroke-miterlimit="3" d="
		M130.9,103.7c3.3,0.8,6.2,2.6,8.7,5.5 M134,108.1c-12.5,20-35,27.2-67.5,21.5"/>
</g>
<g>
	
		<path fill-rule="evenodd" clip-rule="evenodd" fill="none" stroke="#977200" stroke-linecap="round" stroke-linejoin="round" stroke-miterlimit="3" d="
		M130.9,103.7c3.3,0.8,6.2,2.6,8.7,5.5 M134,108.1c-12.5,20-35,27.2-67.5,21.5"/>
</g>
</svg>
